<svg width="26" height="29" viewBox="0 0 26 29" xmlns="http://www.w3.org/2000/svg">
    <path
        d="M4.03 0L6.13364 7.57959V11.2216H7.95364V7.57959L10.0809 0H8.24909L7.49273 3.45279C7.28 4.45789 7.13818 5.17919 7.07909 5.60488H7.02C6.93727 5.00182 6.79545 4.28052 6.60636 3.44097L5.87364 0H4.04182H4.03ZM12.1845 2.86156C11.57 2.86156 11.0736 2.97981 10.6955 3.22812C10.3173 3.47644 10.0336 3.86665 9.85636 4.39876C9.67909 4.93087 9.58454 5.64035 9.58454 6.5272V7.72148C9.58454 8.59651 9.66727 9.29416 9.82091 9.82627C9.97455 10.3584 10.2345 10.7368 10.6127 10.9851C10.9791 11.2334 11.4873 11.3635 12.1373 11.3635C12.7636 11.3635 13.2718 11.2452 13.6382 10.9969C14.0045 10.7486 14.2764 10.3702 14.4418 9.83809C14.6073 9.30598 14.69 8.60833 14.69 7.73331V6.53902C14.69 5.65217 14.6073 4.95452 14.4418 4.42241C14.2764 3.8903 14.0045 3.50009 13.6382 3.25177C13.2718 3.00346 12.7873 2.87339 12.1845 2.87339V2.86156ZM15.6473 3.02711V9.14044C15.6473 9.89722 15.7773 10.453 16.0373 10.8077C16.2973 11.1625 16.6991 11.3398 17.2427 11.3398C18.0227 11.3398 18.6136 10.9614 19.0036 10.2047H19.0391L19.2045 11.2098H20.6464V3.02711H18.8027V9.53065C18.7318 9.68437 18.6255 9.81444 18.4718 9.90904C18.33 10.0036 18.1764 10.0509 18.0109 10.0509C17.8218 10.0509 17.6918 9.96816 17.6091 9.81444C17.5264 9.66072 17.4909 9.40058 17.4909 9.03402V3.02711H15.6473ZM12.1373 4.13862C12.3973 4.13862 12.5745 4.28052 12.6809 4.55248C12.7873 4.82445 12.8345 5.25014 12.8345 5.84137V8.39549C12.8345 8.99854 12.7873 9.43606 12.6809 9.70802C12.5745 9.97999 12.3973 10.1101 12.1373 10.1101C11.8773 10.1101 11.7 9.97999 11.6055 9.70802C11.5109 9.43606 11.4636 8.99854 11.4636 8.39549V5.84137C11.4636 5.25014 11.5109 4.82445 11.6173 4.55248C11.7236 4.28052 11.8891 4.13862 12.1491 4.13862H12.1373ZM2.95455 12.8888C1.32364 12.8888 0 14.2132 0 15.845V25.3047C0 26.9365 1.32364 28.2609 2.95455 28.2609H23.0455C24.6764 28.2609 26 26.9365 26 25.3047V15.845C26 14.2132 24.6764 12.8888 23.0455 12.8888H2.95455ZM13.0709 15.6085H14.5718V19.2505C14.7018 18.9904 14.9027 18.7775 15.1509 18.612C15.3991 18.4464 15.6709 18.3637 15.9545 18.3637C16.3209 18.3637 16.6164 18.4583 16.8173 18.6593C17.03 18.8485 17.1836 19.1677 17.2782 19.6052C17.3727 20.0428 17.42 20.6458 17.42 21.4262V22.5141C17.42 23.5428 17.3018 24.2996 17.0536 24.7844C16.8055 25.2692 16.4155 25.5176 15.8955 25.5176C15.6 25.5176 15.34 25.4466 15.0918 25.3165C14.8436 25.1865 14.6664 24.9973 14.5482 24.7608H14.5127L14.3591 25.4111H13.0709V15.6085ZM3.75818 15.9633H8.36727V17.2167H6.81909V25.4348H5.29455V17.2167H3.74636V15.9633H3.75818ZM20.2209 18.3873C20.7527 18.3873 21.1664 18.4819 21.45 18.6829C21.7336 18.8839 21.9345 19.1796 22.0527 19.5934C22.1709 20.0073 22.23 20.5749 22.23 21.308V22.4904H19.63V22.8452C19.63 23.2945 19.6418 23.6256 19.6655 23.8385C19.6891 24.0631 19.7482 24.2287 19.8309 24.3233C19.9136 24.4297 20.0436 24.477 20.2091 24.477C20.4455 24.477 20.5991 24.3824 20.6936 24.205C20.7764 24.0277 20.8236 23.7202 20.8355 23.3063L22.1709 23.3891C22.1709 23.3891 22.1709 23.531 22.1709 23.6374C22.1709 24.276 21.9936 24.749 21.6509 25.0682C21.2964 25.3875 20.8118 25.5412 20.1618 25.5412C19.3936 25.5412 18.8618 25.3047 18.5427 24.8199C18.2355 24.3351 18.0818 23.5901 18.0818 22.585V21.3789C18.0818 20.3384 18.2473 19.5816 18.5664 19.1086C18.8855 18.6356 19.4291 18.3873 20.2091 18.3873H20.2209ZM10.5655 18.5174H12.1255V25.4348H10.9082L10.7782 24.5834H10.7427C10.4118 25.2219 9.91545 25.5412 9.25364 25.5412C8.79273 25.5412 8.46182 25.3875 8.23727 25.0919C8.01273 24.7963 7.90636 24.3233 7.90636 23.6847V18.5174H9.46636V23.602C9.46636 23.9094 9.50182 24.1341 9.57273 24.2641C9.64364 24.3942 9.75 24.4652 9.91545 24.4652C10.0455 24.4652 10.1755 24.4297 10.3055 24.3351C10.4355 24.2523 10.5182 24.1459 10.5773 24.0158V18.5174H10.5655ZM20.1855 19.4397C20.02 19.4397 19.89 19.487 19.8191 19.5816C19.7364 19.6762 19.6891 19.8417 19.6655 20.0664C19.6418 20.2911 19.63 20.6222 19.63 21.0715V21.5681H20.7645V21.0715C20.7645 20.6222 20.7527 20.2911 20.7173 20.0664C20.6936 19.8417 20.6345 19.6762 20.5518 19.5816C20.4691 19.487 20.3509 19.4397 20.1855 19.4397ZM15.2455 19.487C15.0918 19.487 14.95 19.5461 14.8318 19.6644C14.7136 19.7826 14.6191 19.9363 14.56 20.1255V24.0513C14.6309 24.1695 14.7136 24.2641 14.82 24.3233C14.9264 24.3824 15.0445 24.4179 15.1745 24.4179C15.34 24.4179 15.47 24.3587 15.5645 24.2405C15.6591 24.1222 15.73 23.9212 15.7773 23.6256C15.8127 23.3418 15.8364 22.9398 15.8364 22.4431V21.5563C15.8364 21.0124 15.8245 20.5985 15.7891 20.3029C15.7536 20.0073 15.6945 19.7944 15.6118 19.6762C15.5291 19.5579 15.3991 19.487 15.2455 19.487Z"
    />
</svg>