<svg style="display: none;" aria-hidden="true" xmlns="http://www.w3.org/2000/svg" xmlns:xlink="http://www.w3.org/1999/xlink"><symbol viewBox="0 0 25 24" fill="none" id="svg-arrow"><path d="M2 10.5C1.17157 10.5 0.5 11.1716 0.5 12C0.5 12.8284 1.17157 13.5 2 13.5V10.5ZM24.0607 13.0607C24.6464 12.4749 24.6464 11.5251 24.0607 10.9393L14.5147 1.3934C13.9289 0.807611 12.9792 0.807611 12.3934 1.3934C11.8076 1.97919 11.8076 2.92893 12.3934 3.51472L20.8787 12L12.3934 20.4853C11.8076 21.0711 11.8076 22.0208 12.3934 22.6066C12.9792 23.1924 13.9289 23.1924 14.5147 22.6066L24.0607 13.0607ZM2 13.5H23V10.5H2V13.5Z" fill="#4E44BF"/></symbol><symbol viewBox="0 0 8 6" fill="none" id="svg-checked"><path d="M1 2.71429L3.18182 5L7 1" stroke="#fff" stroke-linecap="round" stroke-linejoin="round"/></symbol><symbol viewBox="0 0 22 22" id="svg-close"><path d="M1 21L20.9999 1.00005M21 21L1.00005 1.00005" stroke="#4E44BF" stroke-width="2" stroke-linecap="round"/></symbol><symbol viewBox="0 0 20 20" id="svg-home"><path fill-rule="evenodd" clip-rule="evenodd" d="M9.4884 1.00879C9.78933 0.774739 10.2107 0.774739 10.5116 1.00879L18.0116 6.84212C18.2146 7 18.3334 7.24276 18.3334 7.49992V16.6666C18.3334 17.3296 18.07 17.9655 17.6011 18.4344C17.1323 18.9032 16.4964 19.1666 15.8334 19.1666H4.16669C3.50365 19.1666 2.86776 18.9032 2.39892 18.4344C1.93008 17.9655 1.66669 17.3296 1.66669 16.6666V7.49992C1.66669 7.24276 1.78541 7 1.9884 6.84212L9.4884 1.00879ZM3.33335 7.90749V16.6666C3.33335 16.8876 3.42115 17.0996 3.57743 17.2558C3.73371 17.4121 3.94567 17.4999 4.16669 17.4999H15.8334C16.0544 17.4999 16.2663 17.4121 16.4226 17.2558C16.5789 17.0996 16.6667 16.8876 16.6667 16.6666V7.90749L10 2.7223L3.33335 7.90749Z"/><path fill-rule="evenodd" clip-rule="evenodd" d="M6.66669 10.0001C6.66669 9.53984 7.03978 9.16675 7.50002 9.16675H12.5C12.9603 9.16675 13.3334 9.53984 13.3334 10.0001V18.3334C13.3334 18.7937 12.9603 19.1667 12.5 19.1667C12.0398 19.1667 11.6667 18.7937 11.6667 18.3334V10.8334H8.33335V18.3334C8.33335 18.7937 7.96026 19.1667 7.50002 19.1667C7.03978 19.1667 6.66669 18.7937 6.66669 18.3334V10.0001Z"/></symbol><symbol viewBox="0 0 18 22" fill="none" id="svg-location"><path d="M9.00977 5.1875C8.30517 5.1875 7.6164 5.39644 7.03055 5.78789C6.4447 6.17934 5.98808 6.73573 5.71844 7.38669C5.44881 8.03765 5.37826 8.75395 5.51572 9.44501C5.65318 10.1361 5.99247 10.7708 6.4907 11.2691C6.98892 11.7673 7.6237 12.1066 8.31476 12.244C9.00581 12.3815 9.72211 12.311 10.3731 12.0413C11.024 11.7717 11.5804 11.3151 11.9719 10.7292C12.3633 10.1434 12.5723 9.4546 12.5723 8.75C12.5723 7.80517 12.1969 6.89903 11.5288 6.23093C10.8607 5.56283 9.9546 5.1875 9.00977 5.1875ZM9.00977 11.1875C8.52767 11.1875 8.05641 11.0445 7.65556 10.7767C7.25472 10.5089 6.9423 10.1282 6.75781 9.68279C6.57332 9.2374 6.52505 8.7473 6.6191 8.27447C6.71315 7.80164 6.9453 7.36732 7.28619 7.02643C7.62708 6.68554 8.0614 6.45339 8.53423 6.35934C9.00706 6.26528 9.49716 6.31356 9.94256 6.49804C10.388 6.68253 10.7686 6.99495 11.0365 7.3958C11.3043 7.79664 11.4473 8.26791 11.4473 8.75C11.4448 9.39571 11.1872 10.0143 10.7306 10.4708C10.274 10.9274 9.65547 11.185 9.00977 11.1875ZM9.00977 0.6875C6.87222 0.689981 4.82293 1.54022 3.31146 3.05169C1.79998 4.56317 0.949747 6.61245 0.947266 8.75C0.947266 11.6469 2.29727 14.7219 4.83789 17.6469C5.98359 18.9761 7.27621 20.1712 8.69102 21.2094C8.78433 21.2753 8.89551 21.3113 9.00977 21.3125C9.12669 21.3098 9.24046 21.2741 9.33789 21.2094C10.7462 20.1668 12.0353 18.9721 13.1816 17.6469C15.7316 14.7219 17.0723 11.6469 17.0723 8.75C17.0698 6.61245 16.2195 4.56317 14.7081 3.05169C13.1966 1.54022 11.1473 0.689981 9.00977 0.6875ZM9.00977 20.0469C7.60352 18.9594 2.07227 14.3375 2.07227 8.75C2.07227 6.91006 2.80318 5.14548 4.10421 3.84445C5.40525 2.54341 7.16983 1.8125 9.00977 1.8125C10.8497 1.8125 12.6143 2.54341 13.9153 3.84445C15.2164 5.14548 15.9473 6.91006 15.9473 8.75C15.9473 14.3375 10.416 18.9594 9.00977 20.0469Z" fill="#fff"/></symbol><symbol viewBox="0 0 62 53" fill="none" id="svg-logo"><path d="M32.6843 52.9983C32.6843 52.9983 42.1351 46.4328 48.0111 38.1019C52.071 32.3445 55.7382 26.6039 58.4975 20.7761C59.3383 19.0006 59.7227 16.5579 59.8922 15.0003C60.0063 13.9541 60.1423 12.9113 60.3067 11.8702C60.6944 9.42571 61.2282 5.3751 61.2802 5.02805C61.401 4.22329 61.349 3.67505 61.1124 3.67505C59.9274 3.67505 57.5526 5.36504 57.5526 7.952C57.5526 14.2744 55.2045 20.4861 54.6054 20.4861C54.3284 20.4861 54.3351 20.3922 54.3351 19.9177C54.3351 19.4433 55.2096 15.9291 55.2096 14.4152C55.2096 12.9013 55.4462 8.71651 55.4462 8.43317C55.4462 8.14983 55.9178 6.05411 56.037 5.49413C56.1058 5.17056 56.131 4.56866 55.6107 4.56866C55.421 4.56866 52.593 5.18397 52.3412 7.29645C52.3412 8.403 51.7001 10.0125 51.9401 13.7781C52.0408 15.3541 50.9432 19.4248 50.6344 20.2849C49.9076 22.3203 47.6116 23.2675 47.0897 23.8359C46.5677 24.4042 47.3162 23.9784 47.4589 23.457C47.5244 23.2206 47.8835 22.3236 48.2561 21.4199C48.8654 19.9412 49.2883 18.392 49.5182 16.8094L49.6257 16.0616C49.728 15.3541 49.7918 14.6415 49.8153 13.9273C49.8438 13.0941 49.8757 11.9942 49.8757 11.4326C49.8757 9.68055 50.871 8.5455 50.918 8.07103C50.965 7.59824 50.6813 7.38699 50.396 7.38699C50.1107 7.38699 48.5717 7.90505 47.7895 8.68634C47.3162 9.34858 47.0091 11.5265 46.9151 13.2315C46.8211 14.9349 46.4636 18.0131 45.9887 19.7165C45.5154 21.4199 45.2049 24.5451 44.2096 26.1076C43.9729 26.4798 43.7581 26.7447 43.5701 26.9308C43.1573 27.3399 42.9575 27.8697 42.9878 27.2896C42.9945 27.1505 43.0213 27.0147 43.0801 26.8973C43.3167 26.4245 43.8085 23.9767 43.8555 23.4553C43.9025 22.9339 44.5923 17.6795 44.5923 17.6795C44.5923 17.6795 44.9716 14.997 44.9716 14.0648C44.9716 13.7043 45.277 12.804 45.3727 12.4251C45.4667 12.0462 45.3979 11.7142 44.9716 11.7142C44.5453 11.7142 42.5531 12.5743 42.5531 13.4495C42.5531 13.8284 42.1972 19.289 42.1972 19.289C42.1972 19.289 40.9972 24.6557 40.1379 27.0583C39.2786 29.4608 39.0302 30.393 38.1776 30.9127C37.325 31.4341 37.3485 31.3352 37.7865 31.3352C38.8288 31.3352 42.0563 30.6981 44.3774 29.1355C45.8359 28.1547 48.2897 26.4849 48.763 26.4849C49.1087 26.4849 49.4192 26.5167 49.2682 26.7062C49.2682 26.8168 43.4678 33.3018 37.3317 33.3018C35.1834 33.3018 33.161 32.9229 32.2765 31.0921C31.392 29.2613 28.5488 30.0828 28.5488 30.0828L29.8764 46.6826L32.6843 52.9949V52.9983Z" fill="url(#fpaint0_linear_196_82)"/><path d="M9.32639 26.4713C9.30121 26.3791 9.32806 26.2031 9.59492 26.2031C10.0179 26.2031 13.0037 28.6643 13.9033 29.3282C14.8029 29.9905 18.0774 31.3166 19.8782 31.3166C21.6791 31.3166 20.9675 30.4649 20.9675 30.4649C20.9675 30.4649 18.8611 26.9223 18.408 26.2986C17.7215 25.3514 18.2183 19.6242 18.2183 18.4875C18.2183 16.2006 17.8642 13.7528 17.8642 13.7528C17.6964 12.3562 16.107 11.647 15.6572 11.647C15.1117 11.647 15.3282 11.9555 15.3282 12.1433C15.3282 12.254 15.4172 12.9497 15.491 13.5047C15.5581 14.011 15.5833 14.5207 15.5648 15.032C15.4927 17.0858 15.2661 21.9697 15.2661 22.4827C15.2661 23.0913 15.3165 24.156 14.9606 24.156C14.6048 24.156 14.155 23.4887 13.8949 23.1919C13.5256 22.7694 13.571 19.428 13.6062 18.9267C13.7069 17.4463 13.8596 15.1477 13.8596 9.94866C13.8596 8.16813 11.473 7.48241 11.1172 7.48241C10.7614 7.48241 10.6607 7.77078 10.6607 8.07592C10.6607 8.38106 10.9661 9.49598 10.9661 11.0686C10.9661 12.6412 10.4425 17.4597 10.4425 18.5763C10.4425 19.6929 10.4928 21.2555 10.748 22.077C10.852 22.4157 11.2565 22.8885 11.2565 23.1416C11.2565 23.3948 11.3068 23.8005 10.6976 23.8005C9.68891 23.8005 8.67854 19.2168 8.67854 17.2401C8.67854 15.2634 9.19044 13.674 9.19044 7.60145C9.19044 5.87625 7.16298 4.55176 5.89918 4.55176C5.46784 4.55176 5.55008 4.88204 5.55008 5.2358C5.55008 5.58956 5.75819 5.97182 5.75819 7.82276C5.75819 10.5673 5.16405 11.8566 5.16405 16.5393C5.16405 17.0473 5.40238 18.9804 5.40238 19.4381C5.40238 19.6661 5.24126 19.7114 5.08014 19.7013C4.86698 19.6862 4.67565 19.5638 4.56152 19.3828C5.2614 21.0526 6.88605 24.4544 9.32639 26.4696V26.4713Z" fill="url(#fpaint1_linear_196_82)"/><path d="M35.9214 17.5152C37.7223 17.5152 39.8454 14.0849 43.0813 14.0849C46.0369 14.0849 46.2584 15.2518 47.2218 16.2628C47.8898 16.9619 47.059 16.7222 46.3625 16.5998C46.0738 16.5495 45.7801 16.6266 45.5519 16.811C44.9829 17.2704 44.1941 18.2395 43.9054 19.009C43.1182 21.1064 38.6622 31.7477 28.7112 31.7477C27.3433 31.7477 24.2434 32.0377 19.6413 30.9982C15.1887 29.9923 13.9416 26.5083 13.366 24.9961C13.0874 24.2651 12.9682 23.5073 13.5539 23.7202C14.8261 24.1846 15.6787 25.541 18.9801 25.541C20.7491 25.541 24.2568 23.8057 24.2568 21.6278C24.2568 18.724 23.0568 14.6214 16.9912 9.76103C11.555 5.40864 3.59119 1.13672 0.855469 0.167658C1.8222 0.0419144 4.61332 0 8.78236 0C18.2601 0 29.5604 5.34325 31.0139 8.22864C31.8917 9.9706 30.8024 10.1818 30.8024 10.938C30.8024 12.5341 32.6973 17.5135 35.9197 17.5135L35.9214 17.5152Z" fill="url(#fpaint2_linear_196_82)"/><path d="M35.04 33.0123C33.3297 33.8389 31.6144 34.5296 29.9243 35.0862C30.9951 34.6788 32.0743 34.2144 33.1501 33.693C44.0175 28.4453 50.5732 19.5645 47.7955 13.8541C45.0161 8.14364 33.9541 7.76977 23.0867 13.0141C17.1554 15.8777 12.508 19.826 9.96191 23.7492C12.3771 19.2174 17.5817 14.5163 24.431 11.2101C35.7969 5.72267 47.3876 6.15355 50.3164 12.1725C53.2468 18.1914 46.4058 27.5215 35.04 33.009V33.0123Z" fill="url(#fpaint3_linear_196_82)"/><path d="M30.3984 28.084C30.2105 26.9138 28.7402 24.4039 28.7402 20.9368C28.7402 20.1857 28.8611 19.0288 28.9282 18.442C28.9517 18.2392 28.7906 18.0648 28.5858 18.0715C28.2619 18.0816 27.7869 18.1218 27.3824 18.2509C26.7799 18.442 24.791 19.3876 24.791 22.3535C24.791 23.7736 25.5278 25.6362 25.5278 28.8988C25.4758 30.339 24.5393 33.1154 20.7261 33.1154C14.8333 33.1154 9.62707 27.5643 9.32664 26.4728C6.88631 24.4576 5.26333 21.0558 4.56178 19.386C4.15226 18.7338 3.38693 15.3555 3.38693 12.341C3.38693 11.0735 3.65714 10.4448 3.65714 7.40178C3.65714 4.3588 0.543788 3.10304 0.543788 3.91953C0.543788 4.87015 0.375952 6.36901 0.375952 8.14451C0.375952 10.1715 0 16.5173 0 19.2418C0 29.0766 12.6783 40.5561 16.5369 43.4834C21.0936 46.9388 32.6844 52.9996 32.6844 52.9996C32.6844 52.9996 37.8638 47.0344 37.8638 42.7222C37.8638 37.944 31.867 37.2348 30.3984 28.0857V28.084Z" fill="url(#fpaint4_linear_196_82)"/><defs><linearGradient id="fpaint0_linear_196_82" x1="35.608" y1="35.59" x2="59.099" y2="12.734" gradientUnits="userSpaceOnUse"><stop stop-color="#204F96"/><stop offset="1" stop-color="#387FC7"/></linearGradient><linearGradient id="fpaint1_linear_196_82" x1="4.562" y1="17.934" x2="21.107" y2="17.934" gradientUnits="userSpaceOnUse"><stop stop-color="#306CB0"/><stop offset="1" stop-color="#275891"/></linearGradient><linearGradient id="fpaint2_linear_196_82" x1=".855" y1="15.892" x2="47.467" y2="15.892" gradientUnits="userSpaceOnUse"><stop stop-color="#E94F28"/><stop offset="1" stop-color="#E44E26"/></linearGradient><linearGradient id="fpaint3_linear_196_82" x1="9.962" y1="21.226" x2="50.993" y2="21.226" gradientUnits="userSpaceOnUse"><stop stop-color="#E94F28"/><stop offset="1" stop-color="#E44E26"/></linearGradient><linearGradient id="fpaint4_linear_196_82" x1="0" y1="28.337" x2="37.864" y2="28.337" gradientUnits="userSpaceOnUse"><stop stop-color="#3F89D5"/><stop offset="1" stop-color="#193A82"/></linearGradient></defs></symbol><symbol viewBox="0 0 28 28" fill="none" id="svg-message"><g clip-path="url(#gclip0_347_14010)" stroke="#4E44BF" stroke-width="1.5" stroke-linecap="round" stroke-linejoin="round"><path d="M23.5665 5H4.43045C3.17229 5 2.15234 5.96431 2.15234 7.15385V21.1538C2.15234 22.3434 3.17229 23.3077 4.43045 23.3077H23.5665C24.8247 23.3077 25.8447 22.3434 25.8447 21.1538V7.15385C25.8447 5.96431 24.8247 5 23.5665 5Z"/><path d="M5.38281 8.23096L13.9982 14.6925L22.6136 8.23096"/></g><defs><clipPath id="gclip0_347_14010"><path fill="#4e44bf" d="M0 0H28V28H0z"/></clipPath></defs></symbol><symbol viewBox="0 0 24 24" id="svg-phone"><path d="M15 1.51162C15.0495 1.33062 15.1681 1.17633 15.3304 1.08206C15.4926 0.987783 15.6854 0.96108 15.8672 1.00771C17.5751 1.46675 19.1323 2.36662 20.3828 3.61712C21.6333 4.86763 22.5331 6.42485 22.9922 8.13271C23.0169 8.22275 23.0234 8.3168 23.0114 8.40939C22.9993 8.50197 22.969 8.59123 22.922 8.67195C22.8751 8.75267 22.8126 8.82325 22.7381 8.87955C22.6637 8.93586 22.5787 8.97677 22.4883 8.9999L22.3125 9.02334C22.1568 9.02309 22.0056 8.97118 21.8826 8.87574C21.7596 8.7803 21.6717 8.64674 21.6328 8.49599C21.2354 7.02816 20.4605 5.69 19.3852 4.61471C18.3099 3.53942 16.9717 2.76451 15.5039 2.36709C15.3255 2.31754 15.1732 2.20068 15.0792 2.04111C14.9852 1.88153 14.9568 1.69171 15 1.51162ZM14.5313 5.98818C15.3637 6.21607 16.1224 6.65687 16.7327 7.26716C17.343 7.87745 17.7838 8.63619 18.0117 9.46865C18.0506 9.61939 18.1385 9.75296 18.2615 9.8484C18.3845 9.94383 18.5357 9.99575 18.6914 9.99599L18.8672 9.97255C19.0465 9.92047 19.1989 9.80133 19.2928 9.63985C19.3866 9.47838 19.4146 9.28697 19.3711 9.10537C19.0816 8.03289 18.5158 7.05511 17.7303 6.2696C16.9448 5.48409 15.967 4.91834 14.8945 4.6288C14.7129 4.58525 14.5215 4.6133 14.36 4.70713C14.1986 4.80096 14.0794 4.95336 14.0273 5.13271C13.981 5.31296 14.008 5.50423 14.1025 5.66458C14.197 5.82494 14.3511 5.94131 14.5313 5.98818ZM23.9062 17.4843C23.7098 19.0119 22.964 20.4158 21.8081 21.4337C20.6521 22.4516 19.1652 23.0139 17.625 23.0155C8.44922 23.0155 0.984375 15.5507 0.984375 6.3749C0.986031 4.83469 1.54832 3.34775 2.56622 2.19184C3.58411 1.03592 4.98799 0.290089 6.51562 0.0936486C6.86714 0.0524992 7.22254 0.126122 7.52878 0.30353C7.83502 0.480938 8.07568 0.752618 8.21484 1.07802L10.5703 6.57412C10.6772 6.82279 10.7213 7.09391 10.6988 7.36363C10.6763 7.63336 10.5879 7.89343 10.4414 8.12099L8.48438 11.0976C8.46503 11.1311 8.45389 11.1688 8.45185 11.2075C8.44982 11.2462 8.45694 11.2848 8.47266 11.3202C9.37281 13.1658 10.8667 14.6556 12.7148 15.5507C12.7507 15.5668 12.7902 15.5731 12.8293 15.569C12.8684 15.5649 12.9058 15.5505 12.9375 15.5272L15.8789 13.5702C16.1042 13.4188 16.364 13.3266 16.6344 13.302C16.9047 13.2775 17.1769 13.3213 17.4258 13.4296L22.9219 15.7851C23.2473 15.9242 23.519 16.1649 23.6964 16.4711C23.8738 16.7774 23.9474 17.1328 23.9062 17.4843ZM22.5117 17.3085C22.5157 17.2596 22.5043 17.2107 22.4791 17.1687C22.4539 17.1266 22.4161 17.0936 22.3711 17.0741L16.875 14.7186C16.8387 14.7047 16.7996 14.6995 16.7609 14.7036C16.7221 14.7077 16.685 14.7208 16.6523 14.7421L13.7227 16.6991C13.4855 16.8549 13.2124 16.9475 12.9293 16.968C12.6462 16.9885 12.3627 16.9363 12.1055 16.8163C9.97386 15.7786 8.24986 14.0587 7.20703 11.9296C7.08525 11.6755 7.03098 11.3942 7.04945 11.113C7.06792 10.8318 7.15852 10.5601 7.3125 10.3241L9.25781 7.34755C9.28103 7.31582 9.29543 7.2785 9.29955 7.23939C9.30367 7.20028 9.29735 7.16078 9.28125 7.1249L6.92578 1.6288C6.90781 1.58761 6.87837 1.55244 6.84097 1.52751C6.80357 1.50258 6.75979 1.48892 6.71484 1.48818H6.69141C5.5045 1.6442 4.41447 2.22545 3.62357 3.1241C2.83268 4.02275 2.3946 5.17779 2.39062 6.3749C2.39373 10.4144 3.99977 14.2875 6.8561 17.1438C9.71243 20.0001 13.5855 21.6062 17.625 21.6093C18.8221 21.6053 19.9771 21.1672 20.8758 20.3763C21.7744 19.5854 22.3557 18.4954 22.5117 17.3085Z"/></symbol><symbol viewBox="0 0 9 12" fill="none" id="svg-play"><path d="M9 6L0.75 11.1962L0.750001 0.803847L9 6Z" fill="#EFEFF9"/></symbol><symbol viewBox="0 0 18 10" fill="none" id="svg-tab"><path d="M17 1L9 9L1 0.999999" stroke="#fff" stroke-width="2" stroke-linecap="round" stroke-linejoin="round"/></symbol><symbol viewBox="0 0 18 10" fill="none" id="svg-tab-color"><path d="M17 1L9 9L1 0.999999" stroke="#4e44bf" stroke-width="2" stroke-linecap="round" stroke-linejoin="round"/></symbol><symbol viewBox="0 0 26 16" id="svg-vk"><path fill-rule="evenodd" clip-rule="evenodd" d="M25.388 1.11111C25.5808 0.484444 25.388 0.0288887 24.5348 0.0288887H21.6981C20.9826 0.0288887 20.6522 0.427778 20.4593 0.854444C20.4593 0.854444 19.0001 4.49889 16.9623 6.86167C16.3015 7.545 15.9987 7.77278 15.6406 7.77278C15.4478 7.77278 15.1997 7.545 15.1997 6.91889V1.08167C15.1997 0.341667 14.9798 0 14.3737 0H9.91251C9.4716 0 9.19643 0.341667 9.19643 0.683334C9.19643 1.395 10.2153 1.56611 10.3253 3.55889V7.88889C10.3253 8.82833 10.1628 9 9.80201 9C8.83839 9 6.49784 5.32722 5.09384 1.14222C4.82084 0.313333 4.54351 0 3.82742 0H0.963626C0.137584 0 0 0.398333 0 0.825556C0 1.59444 0.963626 5.46611 4.48826 10.5906C6.8288 14.0906 10.1606 15.9717 13.162 15.9717C14.9798 15.9717 15.1997 15.5444 15.1997 14.8328V12.185C15.1997 11.3311 15.3649 11.1889 15.9434 11.1889C16.3562 11.1889 17.0999 11.4161 18.7796 13.0961C20.7069 15.0889 21.0373 16 22.1114 16H24.9476C25.7736 16 26.1593 15.5728 25.9388 14.7472C25.6913 13.9217 24.7547 12.7261 23.543 11.3028C22.8822 10.5061 21.8909 9.62333 21.5882 9.19611C21.1754 8.62667 21.2854 8.39889 21.5882 7.88667C21.5605 7.88667 25.0305 2.81889 25.388 1.10889"/></symbol><symbol viewBox="0 0 22 22" id="svg-wh"><path d="M18.6375 3.31907C17.6443 2.31582 16.4613 1.52038 15.1574 0.979124C13.8536 0.437872 12.455 0.16165 11.0433 0.166568C5.12832 0.166568 0.307492 4.9874 0.307492 10.9024C0.307492 12.7982 0.805825 14.6399 1.73749 16.2649L0.220825 21.8332L5.90832 20.3382C7.47916 21.1941 9.24499 21.6491 11.0433 21.6491C16.9583 21.6491 21.7792 16.8282 21.7792 10.9132C21.7792 8.0424 20.6633 5.3449 18.6375 3.31907ZM11.0433 19.8291C9.43999 19.8291 7.86916 19.3957 6.49332 18.5832L6.16832 18.3882L2.78833 19.2766L3.68749 15.9832L3.47083 15.6474C2.58005 14.225 2.10706 12.5807 2.10583 10.9024C2.10583 5.98407 6.11416 1.97574 11.0325 1.97574C13.4158 1.97574 15.6583 2.9074 17.3375 4.5974C18.1689 5.42503 18.8278 6.40945 19.276 7.49361C19.7242 8.57777 19.9527 9.7401 19.9483 10.9132C19.97 15.8316 15.9617 19.8291 11.0433 19.8291ZM15.94 13.1557C15.6692 13.0257 14.3475 12.3757 14.1092 12.2782C13.86 12.1916 13.6867 12.1482 13.5025 12.4082C13.3183 12.6791 12.8092 13.2857 12.6575 13.4591C12.5058 13.6432 12.3433 13.6649 12.0725 13.5241C11.8017 13.3941 10.935 13.1016 9.91666 12.1916C9.11499 11.4766 8.58416 10.5991 8.42166 10.3282C8.26999 10.0574 8.39999 9.91657 8.54082 9.77573C8.65999 9.65657 8.81166 9.46157 8.94166 9.3099C9.07166 9.15823 9.12582 9.03907 9.21249 8.86573C9.29916 8.68157 9.25582 8.5299 9.19082 8.3999C9.12582 8.2699 8.58416 6.94824 8.36749 6.40657C8.15082 5.88657 7.92332 5.95157 7.76082 5.94074H7.24082C7.05666 5.94074 6.77499 6.00574 6.52582 6.27657C6.28749 6.5474 5.59416 7.1974 5.59416 8.51907C5.59416 9.84074 6.55833 11.1191 6.68833 11.2924C6.81832 11.4766 8.58416 14.1849 11.2708 15.3441C11.91 15.6257 12.4083 15.7882 12.7983 15.9074C13.4375 16.1132 14.0225 16.0807 14.4883 16.0157C15.0083 15.9399 16.0808 15.3657 16.2975 14.7374C16.525 14.1091 16.525 13.5782 16.4492 13.4591C16.3733 13.3399 16.2108 13.2857 15.94 13.1557Z"/></symbol><symbol viewBox="0 0 26 29" id="svg-yt"><path d="M4.03 0L6.13364 7.57959V11.2216H7.95364V7.57959L10.0809 0H8.24909L7.49273 3.45279C7.28 4.45789 7.13818 5.17919 7.07909 5.60488H7.02C6.93727 5.00182 6.79545 4.28052 6.60636 3.44097L5.87364 0H4.04182H4.03ZM12.1845 2.86156C11.57 2.86156 11.0736 2.97981 10.6955 3.22812C10.3173 3.47644 10.0336 3.86665 9.85636 4.39876C9.67909 4.93087 9.58454 5.64035 9.58454 6.5272V7.72148C9.58454 8.59651 9.66727 9.29416 9.82091 9.82627C9.97455 10.3584 10.2345 10.7368 10.6127 10.9851C10.9791 11.2334 11.4873 11.3635 12.1373 11.3635C12.7636 11.3635 13.2718 11.2452 13.6382 10.9969C14.0045 10.7486 14.2764 10.3702 14.4418 9.83809C14.6073 9.30598 14.69 8.60833 14.69 7.73331V6.53902C14.69 5.65217 14.6073 4.95452 14.4418 4.42241C14.2764 3.8903 14.0045 3.50009 13.6382 3.25177C13.2718 3.00346 12.7873 2.87339 12.1845 2.87339V2.86156ZM15.6473 3.02711V9.14044C15.6473 9.89722 15.7773 10.453 16.0373 10.8077C16.2973 11.1625 16.6991 11.3398 17.2427 11.3398C18.0227 11.3398 18.6136 10.9614 19.0036 10.2047H19.0391L19.2045 11.2098H20.6464V3.02711H18.8027V9.53065C18.7318 9.68437 18.6255 9.81444 18.4718 9.90904C18.33 10.0036 18.1764 10.0509 18.0109 10.0509C17.8218 10.0509 17.6918 9.96816 17.6091 9.81444C17.5264 9.66072 17.4909 9.40058 17.4909 9.03402V3.02711H15.6473ZM12.1373 4.13862C12.3973 4.13862 12.5745 4.28052 12.6809 4.55248C12.7873 4.82445 12.8345 5.25014 12.8345 5.84137V8.39549C12.8345 8.99854 12.7873 9.43606 12.6809 9.70802C12.5745 9.97999 12.3973 10.1101 12.1373 10.1101C11.8773 10.1101 11.7 9.97999 11.6055 9.70802C11.5109 9.43606 11.4636 8.99854 11.4636 8.39549V5.84137C11.4636 5.25014 11.5109 4.82445 11.6173 4.55248C11.7236 4.28052 11.8891 4.13862 12.1491 4.13862H12.1373ZM2.95455 12.8888C1.32364 12.8888 0 14.2132 0 15.845V25.3047C0 26.9365 1.32364 28.2609 2.95455 28.2609H23.0455C24.6764 28.2609 26 26.9365 26 25.3047V15.845C26 14.2132 24.6764 12.8888 23.0455 12.8888H2.95455ZM13.0709 15.6085H14.5718V19.2505C14.7018 18.9904 14.9027 18.7775 15.1509 18.612C15.3991 18.4464 15.6709 18.3637 15.9545 18.3637C16.3209 18.3637 16.6164 18.4583 16.8173 18.6593C17.03 18.8485 17.1836 19.1677 17.2782 19.6052C17.3727 20.0428 17.42 20.6458 17.42 21.4262V22.5141C17.42 23.5428 17.3018 24.2996 17.0536 24.7844C16.8055 25.2692 16.4155 25.5176 15.8955 25.5176C15.6 25.5176 15.34 25.4466 15.0918 25.3165C14.8436 25.1865 14.6664 24.9973 14.5482 24.7608H14.5127L14.3591 25.4111H13.0709V15.6085ZM3.75818 15.9633H8.36727V17.2167H6.81909V25.4348H5.29455V17.2167H3.74636V15.9633H3.75818ZM20.2209 18.3873C20.7527 18.3873 21.1664 18.4819 21.45 18.6829C21.7336 18.8839 21.9345 19.1796 22.0527 19.5934C22.1709 20.0073 22.23 20.5749 22.23 21.308V22.4904H19.63V22.8452C19.63 23.2945 19.6418 23.6256 19.6655 23.8385C19.6891 24.0631 19.7482 24.2287 19.8309 24.3233C19.9136 24.4297 20.0436 24.477 20.2091 24.477C20.4455 24.477 20.5991 24.3824 20.6936 24.205C20.7764 24.0277 20.8236 23.7202 20.8355 23.3063L22.1709 23.3891C22.1709 23.3891 22.1709 23.531 22.1709 23.6374C22.1709 24.276 21.9936 24.749 21.6509 25.0682C21.2964 25.3875 20.8118 25.5412 20.1618 25.5412C19.3936 25.5412 18.8618 25.3047 18.5427 24.8199C18.2355 24.3351 18.0818 23.5901 18.0818 22.585V21.3789C18.0818 20.3384 18.2473 19.5816 18.5664 19.1086C18.8855 18.6356 19.4291 18.3873 20.2091 18.3873H20.2209ZM10.5655 18.5174H12.1255V25.4348H10.9082L10.7782 24.5834H10.7427C10.4118 25.2219 9.91545 25.5412 9.25364 25.5412C8.79273 25.5412 8.46182 25.3875 8.23727 25.0919C8.01273 24.7963 7.90636 24.3233 7.90636 23.6847V18.5174H9.46636V23.602C9.46636 23.9094 9.50182 24.1341 9.57273 24.2641C9.64364 24.3942 9.75 24.4652 9.91545 24.4652C10.0455 24.4652 10.1755 24.4297 10.3055 24.3351C10.4355 24.2523 10.5182 24.1459 10.5773 24.0158V18.5174H10.5655ZM20.1855 19.4397C20.02 19.4397 19.89 19.487 19.8191 19.5816C19.7364 19.6762 19.6891 19.8417 19.6655 20.0664C19.6418 20.2911 19.63 20.6222 19.63 21.0715V21.5681H20.7645V21.0715C20.7645 20.6222 20.7527 20.2911 20.7173 20.0664C20.6936 19.8417 20.6345 19.6762 20.5518 19.5816C20.4691 19.487 20.3509 19.4397 20.1855 19.4397ZM15.2455 19.487C15.0918 19.487 14.95 19.5461 14.8318 19.6644C14.7136 19.7826 14.6191 19.9363 14.56 20.1255V24.0513C14.6309 24.1695 14.7136 24.2641 14.82 24.3233C14.9264 24.3824 15.0445 24.4179 15.1745 24.4179C15.34 24.4179 15.47 24.3587 15.5645 24.2405C15.6591 24.1222 15.73 23.9212 15.7773 23.6256C15.8127 23.3418 15.8364 22.9398 15.8364 22.4431V21.5563C15.8364 21.0124 15.8245 20.5985 15.7891 20.3029C15.7536 20.0073 15.6945 19.7944 15.6118 19.6762C15.5291 19.5579 15.3991 19.487 15.2455 19.487Z"/></symbol></svg>