<svg width="62" height="53" viewBox="0 0 62 53" fill="none" xmlns="http://www.w3.org/2000/svg">
<path d="M32.6843 52.9983C32.6843 52.9983 42.1351 46.4328 48.0111 38.1019C52.071 32.3445 55.7382 26.6039 58.4975 20.7761C59.3383 19.0006 59.7227 16.5579 59.8922 15.0003C60.0063 13.9541 60.1423 12.9113 60.3067 11.8702C60.6944 9.42571 61.2282 5.3751 61.2802 5.02805C61.401 4.22329 61.349 3.67505 61.1124 3.67505C59.9274 3.67505 57.5526 5.36504 57.5526 7.952C57.5526 14.2744 55.2045 20.4861 54.6054 20.4861C54.3284 20.4861 54.3351 20.3922 54.3351 19.9177C54.3351 19.4433 55.2096 15.9291 55.2096 14.4152C55.2096 12.9013 55.4462 8.71651 55.4462 8.43317C55.4462 8.14983 55.9178 6.05411 56.037 5.49413C56.1058 5.17056 56.131 4.56866 55.6107 4.56866C55.421 4.56866 52.593 5.18397 52.3412 7.29645C52.3412 8.403 51.7001 10.0125 51.9401 13.7781C52.0408 15.3541 50.9432 19.4248 50.6344 20.2849C49.9076 22.3203 47.6116 23.2675 47.0897 23.8359C46.5677 24.4042 47.3162 23.9784 47.4589 23.457C47.5244 23.2206 47.8835 22.3236 48.2561 21.4199C48.8654 19.9412 49.2883 18.392 49.5182 16.8094L49.6257 16.0616C49.728 15.3541 49.7918 14.6415 49.8153 13.9273C49.8438 13.0941 49.8757 11.9942 49.8757 11.4326C49.8757 9.68055 50.871 8.5455 50.918 8.07103C50.965 7.59824 50.6813 7.38699 50.396 7.38699C50.1107 7.38699 48.5717 7.90505 47.7895 8.68634C47.3162 9.34858 47.0091 11.5265 46.9151 13.2315C46.8211 14.9349 46.4636 18.0131 45.9887 19.7165C45.5154 21.4199 45.2049 24.5451 44.2096 26.1076C43.9729 26.4798 43.7581 26.7447 43.5701 26.9308C43.1573 27.3399 42.9575 27.8697 42.9878 27.2896C42.9945 27.1505 43.0213 27.0147 43.0801 26.8973C43.3167 26.4245 43.8085 23.9767 43.8555 23.4553C43.9025 22.9339 44.5923 17.6795 44.5923 17.6795C44.5923 17.6795 44.9716 14.997 44.9716 14.0648C44.9716 13.7043 45.277 12.804 45.3727 12.4251C45.4667 12.0462 45.3979 11.7142 44.9716 11.7142C44.5453 11.7142 42.5531 12.5743 42.5531 13.4495C42.5531 13.8284 42.1972 19.289 42.1972 19.289C42.1972 19.289 40.9972 24.6557 40.1379 27.0583C39.2786 29.4608 39.0302 30.393 38.1776 30.9127C37.325 31.4341 37.3485 31.3352 37.7865 31.3352C38.8288 31.3352 42.0563 30.6981 44.3774 29.1355C45.8359 28.1547 48.2897 26.4849 48.763 26.4849C49.1087 26.4849 49.4192 26.5167 49.2682 26.7062C49.2682 26.8168 43.4678 33.3018 37.3317 33.3018C35.1834 33.3018 33.161 32.9229 32.2765 31.0921C31.392 29.2613 28.5488 30.0828 28.5488 30.0828L29.8764 46.6826L32.6843 52.9949V52.9983Z" fill="url(#paint0_linear_196_82)"/>
<path d="M9.32639 26.4713C9.30121 26.3791 9.32806 26.2031 9.59492 26.2031C10.0179 26.2031 13.0037 28.6643 13.9033 29.3282C14.8029 29.9905 18.0774 31.3166 19.8782 31.3166C21.6791 31.3166 20.9675 30.4649 20.9675 30.4649C20.9675 30.4649 18.8611 26.9223 18.408 26.2986C17.7215 25.3514 18.2183 19.6242 18.2183 18.4875C18.2183 16.2006 17.8642 13.7528 17.8642 13.7528C17.6964 12.3562 16.107 11.647 15.6572 11.647C15.1117 11.647 15.3282 11.9555 15.3282 12.1433C15.3282 12.254 15.4172 12.9497 15.491 13.5047C15.5581 14.011 15.5833 14.5207 15.5648 15.032C15.4927 17.0858 15.2661 21.9697 15.2661 22.4827C15.2661 23.0913 15.3165 24.156 14.9606 24.156C14.6048 24.156 14.155 23.4887 13.8949 23.1919C13.5256 22.7694 13.571 19.428 13.6062 18.9267C13.7069 17.4463 13.8596 15.1477 13.8596 9.94866C13.8596 8.16813 11.473 7.48241 11.1172 7.48241C10.7614 7.48241 10.6607 7.77078 10.6607 8.07592C10.6607 8.38106 10.9661 9.49598 10.9661 11.0686C10.9661 12.6412 10.4425 17.4597 10.4425 18.5763C10.4425 19.6929 10.4928 21.2555 10.748 22.077C10.852 22.4157 11.2565 22.8885 11.2565 23.1416C11.2565 23.3948 11.3068 23.8005 10.6976 23.8005C9.68891 23.8005 8.67854 19.2168 8.67854 17.2401C8.67854 15.2634 9.19044 13.674 9.19044 7.60145C9.19044 5.87625 7.16298 4.55176 5.89918 4.55176C5.46784 4.55176 5.55008 4.88204 5.55008 5.2358C5.55008 5.58956 5.75819 5.97182 5.75819 7.82276C5.75819 10.5673 5.16405 11.8566 5.16405 16.5393C5.16405 17.0473 5.40238 18.9804 5.40238 19.4381C5.40238 19.6661 5.24126 19.7114 5.08014 19.7013C4.86698 19.6862 4.67565 19.5638 4.56152 19.3828C5.2614 21.0526 6.88605 24.4544 9.32639 26.4696V26.4713Z" fill="url(#paint1_linear_196_82)"/>
<path d="M35.9214 17.5152C37.7223 17.5152 39.8454 14.0849 43.0813 14.0849C46.0369 14.0849 46.2584 15.2518 47.2218 16.2628C47.8898 16.9619 47.059 16.7222 46.3625 16.5998C46.0738 16.5495 45.7801 16.6266 45.5519 16.811C44.9829 17.2704 44.1941 18.2395 43.9054 19.009C43.1182 21.1064 38.6622 31.7477 28.7112 31.7477C27.3433 31.7477 24.2434 32.0377 19.6413 30.9982C15.1887 29.9923 13.9416 26.5083 13.366 24.9961C13.0874 24.2651 12.9682 23.5073 13.5539 23.7202C14.8261 24.1846 15.6787 25.541 18.9801 25.541C20.7491 25.541 24.2568 23.8057 24.2568 21.6278C24.2568 18.724 23.0568 14.6214 16.9912 9.76103C11.555 5.40864 3.59119 1.13672 0.855469 0.167658C1.8222 0.0419144 4.61332 0 8.78236 0C18.2601 0 29.5604 5.34325 31.0139 8.22864C31.8917 9.9706 30.8024 10.1818 30.8024 10.938C30.8024 12.5341 32.6973 17.5135 35.9197 17.5135L35.9214 17.5152Z" fill="url(#paint2_linear_196_82)"/>
<path d="M35.04 33.0123C33.3297 33.8389 31.6144 34.5296 29.9243 35.0862C30.9951 34.6788 32.0743 34.2144 33.1501 33.693C44.0175 28.4453 50.5732 19.5645 47.7955 13.8541C45.0161 8.14364 33.9541 7.76977 23.0867 13.0141C17.1554 15.8777 12.508 19.826 9.96191 23.7492C12.3771 19.2174 17.5817 14.5163 24.431 11.2101C35.7969 5.72267 47.3876 6.15355 50.3164 12.1725C53.2468 18.1914 46.4058 27.5215 35.04 33.009V33.0123Z" fill="url(#paint3_linear_196_82)"/>
<path d="M30.3984 28.084C30.2105 26.9138 28.7402 24.4039 28.7402 20.9368C28.7402 20.1857 28.8611 19.0288 28.9282 18.442C28.9517 18.2392 28.7906 18.0648 28.5858 18.0715C28.2619 18.0816 27.7869 18.1218 27.3824 18.2509C26.7799 18.442 24.791 19.3876 24.791 22.3535C24.791 23.7736 25.5278 25.6362 25.5278 28.8988C25.4758 30.339 24.5393 33.1154 20.7261 33.1154C14.8333 33.1154 9.62707 27.5643 9.32664 26.4728C6.88631 24.4576 5.26333 21.0558 4.56178 19.386C4.15226 18.7338 3.38693 15.3555 3.38693 12.341C3.38693 11.0735 3.65714 10.4448 3.65714 7.40178C3.65714 4.3588 0.543788 3.10304 0.543788 3.91953C0.543788 4.87015 0.375952 6.36901 0.375952 8.14451C0.375952 10.1715 0 16.5173 0 19.2418C0 29.0766 12.6783 40.5561 16.5369 43.4834C21.0936 46.9388 32.6844 52.9996 32.6844 52.9996C32.6844 52.9996 37.8638 47.0344 37.8638 42.7222C37.8638 37.944 31.867 37.2348 30.3984 28.0857V28.084Z" fill="url(#paint4_linear_196_82)"/>
<defs>
<linearGradient id="paint0_linear_196_82" x1="35.608" y1="35.5904" x2="59.0992" y2="12.7338" gradientUnits="userSpaceOnUse">
<stop stop-color="#204F96"/>
<stop offset="1" stop-color="#387FC7"/>
</linearGradient>
<linearGradient id="paint1_linear_196_82" x1="4.56152" y1="17.9342" x2="21.1068" y2="17.9342" gradientUnits="userSpaceOnUse">
<stop stop-color="#306CB0"/>
<stop offset="1" stop-color="#275891"/>
</linearGradient>
<linearGradient id="paint2_linear_196_82" x1="0.855469" y1="15.8923" x2="47.4669" y2="15.8923" gradientUnits="userSpaceOnUse">
<stop stop-color="#E94F28"/>
<stop offset="1" stop-color="#E44E26"/>
</linearGradient>
<linearGradient id="paint3_linear_196_82" x1="9.96191" y1="21.226" x2="50.9928" y2="21.226" gradientUnits="userSpaceOnUse">
<stop stop-color="#E94F28"/>
<stop offset="1" stop-color="#E44E26"/>
</linearGradient>
<linearGradient id="paint4_linear_196_82" x1="0" y1="28.3372" x2="37.8638" y2="28.3372" gradientUnits="userSpaceOnUse">
<stop stop-color="#3F89D5"/>
<stop offset="1" stop-color="#193A82"/>
</linearGradient>
</defs>
</svg>
