<svg width="20" height="20" viewBox="0 0 20 20" fill="none" xmlns="http://www.w3.org/2000/svg">
<path fill-rule="evenodd" clip-rule="evenodd" d="M9.4884 1.00879C9.78933 0.774739 10.2107 0.774739 10.5116 1.00879L18.0116 6.84212C18.2146 7 18.3334 7.24276 18.3334 7.49992V16.6666C18.3334 17.3296 18.07 17.9655 17.6011 18.4344C17.1323 18.9032 16.4964 19.1666 15.8334 19.1666H4.16669C3.50365 19.1666 2.86776 18.9032 2.39892 18.4344C1.93008 17.9655 1.66669 17.3296 1.66669 16.6666V7.49992C1.66669 7.24276 1.78541 7 1.9884 6.84212L9.4884 1.00879ZM3.33335 7.90749V16.6666C3.33335 16.8876 3.42115 17.0996 3.57743 17.2558C3.73371 17.4121 3.94567 17.4999 4.16669 17.4999H15.8334C16.0544 17.4999 16.2663 17.4121 16.4226 17.2558C16.5789 17.0996 16.6667 16.8876 16.6667 16.6666V7.90749L10 2.7223L3.33335 7.90749Z" fill="white"/>
<path fill-rule="evenodd" clip-rule="evenodd" d="M6.66669 10.0001C6.66669 9.53984 7.03978 9.16675 7.50002 9.16675H12.5C12.9603 9.16675 13.3334 9.53984 13.3334 10.0001V18.3334C13.3334 18.7937 12.9603 19.1667 12.5 19.1667C12.0398 19.1667 11.6667 18.7937 11.6667 18.3334V10.8334H8.33335V18.3334C8.33335 18.7937 7.96026 19.1667 7.50002 19.1667C7.03978 19.1667 6.66669 18.7937 6.66669 18.3334V10.0001Z" fill="white"/>
</svg>
