<svg width="18" height="22" viewBox="0 0 18 22" fill="none" xmlns="http://www.w3.org/2000/svg">
<path d="M9.00977 5.1875C8.30517 5.1875 7.6164 5.39644 7.03055 5.78789C6.4447 6.17934 5.98808 6.73573 5.71844 7.38669C5.44881 8.03765 5.37826 8.75395 5.51572 9.44501C5.65318 10.1361 5.99247 10.7708 6.4907 11.2691C6.98892 11.7673 7.6237 12.1066 8.31476 12.244C9.00581 12.3815 9.72211 12.311 10.3731 12.0413C11.024 11.7717 11.5804 11.3151 11.9719 10.7292C12.3633 10.1434 12.5723 9.4546 12.5723 8.75C12.5723 7.80517 12.1969 6.89903 11.5288 6.23093C10.8607 5.56283 9.9546 5.1875 9.00977 5.1875ZM9.00977 11.1875C8.52767 11.1875 8.05641 11.0445 7.65556 10.7767C7.25472 10.5089 6.9423 10.1282 6.75781 9.68279C6.57332 9.2374 6.52505 8.7473 6.6191 8.27447C6.71315 7.80164 6.9453 7.36732 7.28619 7.02643C7.62708 6.68554 8.0614 6.45339 8.53423 6.35934C9.00706 6.26528 9.49716 6.31356 9.94256 6.49804C10.388 6.68253 10.7686 6.99495 11.0365 7.3958C11.3043 7.79664 11.4473 8.26791 11.4473 8.75C11.4448 9.39571 11.1872 10.0143 10.7306 10.4708C10.274 10.9274 9.65547 11.185 9.00977 11.1875ZM9.00977 0.6875C6.87222 0.689981 4.82293 1.54022 3.31146 3.05169C1.79998 4.56317 0.949747 6.61245 0.947266 8.75C0.947266 11.6469 2.29727 14.7219 4.83789 17.6469C5.98359 18.9761 7.27621 20.1712 8.69102 21.2094C8.78433 21.2753 8.89551 21.3113 9.00977 21.3125C9.12669 21.3098 9.24046 21.2741 9.33789 21.2094C10.7462 20.1668 12.0353 18.9721 13.1816 17.6469C15.7316 14.7219 17.0723 11.6469 17.0723 8.75C17.0698 6.61245 16.2195 4.56317 14.7081 3.05169C13.1966 1.54022 11.1473 0.689981 9.00977 0.6875ZM9.00977 20.0469C7.60352 18.9594 2.07227 14.3375 2.07227 8.75C2.07227 6.91006 2.80318 5.14548 4.10421 3.84445C5.40525 2.54341 7.16983 1.8125 9.00977 1.8125C10.8497 1.8125 12.6143 2.54341 13.9153 3.84445C15.2164 5.14548 15.9473 6.91006 15.9473 8.75C15.9473 14.3375 10.416 18.9594 9.00977 20.0469Z" fill="white"/>
</svg>
