<svg width="24" height="24" viewBox="0 0 24 24" fill="none" xmlns="http://www.w3.org/2000/svg">
<path d="M15 1.51162C15.0495 1.33062 15.1681 1.17633 15.3304 1.08206C15.4926 0.987783 15.6854 0.96108 15.8672 1.00771C17.5751 1.46675 19.1323 2.36662 20.3828 3.61712C21.6333 4.86763 22.5331 6.42485 22.9922 8.13271C23.0169 8.22275 23.0234 8.3168 23.0114 8.40939C22.9993 8.50197 22.969 8.59123 22.922 8.67195C22.8751 8.75267 22.8126 8.82325 22.7381 8.87955C22.6637 8.93586 22.5787 8.97677 22.4883 8.9999L22.3125 9.02334C22.1568 9.02309 22.0056 8.97118 21.8826 8.87574C21.7596 8.7803 21.6717 8.64674 21.6328 8.49599C21.2354 7.02816 20.4605 5.69 19.3852 4.61471C18.3099 3.53942 16.9717 2.76451 15.5039 2.36709C15.3255 2.31754 15.1732 2.20068 15.0792 2.04111C14.9852 1.88153 14.9568 1.69171 15 1.51162ZM14.5313 5.98818C15.3637 6.21607 16.1224 6.65687 16.7327 7.26716C17.343 7.87745 17.7838 8.63619 18.0117 9.46865C18.0506 9.61939 18.1385 9.75296 18.2615 9.8484C18.3845 9.94383 18.5357 9.99575 18.6914 9.99599L18.8672 9.97255C19.0465 9.92047 19.1989 9.80133 19.2928 9.63985C19.3866 9.47838 19.4146 9.28697 19.3711 9.10537C19.0816 8.03289 18.5158 7.05511 17.7303 6.2696C16.9448 5.48409 15.967 4.91834 14.8945 4.6288C14.7129 4.58525 14.5215 4.6133 14.36 4.70713C14.1986 4.80096 14.0794 4.95336 14.0273 5.13271C13.981 5.31296 14.008 5.50423 14.1025 5.66458C14.197 5.82494 14.3511 5.94131 14.5313 5.98818ZM23.9062 17.4843C23.7098 19.0119 22.964 20.4158 21.8081 21.4337C20.6521 22.4516 19.1652 23.0139 17.625 23.0155C8.44922 23.0155 0.984375 15.5507 0.984375 6.3749C0.986031 4.83469 1.54832 3.34775 2.56622 2.19184C3.58411 1.03592 4.98799 0.290089 6.51562 0.0936486C6.86714 0.0524992 7.22254 0.126122 7.52878 0.30353C7.83502 0.480938 8.07568 0.752618 8.21484 1.07802L10.5703 6.57412C10.6772 6.82279 10.7213 7.09391 10.6988 7.36363C10.6763 7.63336 10.5879 7.89343 10.4414 8.12099L8.48438 11.0976C8.46503 11.1311 8.45389 11.1688 8.45185 11.2075C8.44982 11.2462 8.45694 11.2848 8.47266 11.3202C9.37281 13.1658 10.8667 14.6556 12.7148 15.5507C12.7507 15.5668 12.7902 15.5731 12.8293 15.569C12.8684 15.5649 12.9058 15.5505 12.9375 15.5272L15.8789 13.5702C16.1042 13.4188 16.364 13.3266 16.6344 13.302C16.9047 13.2775 17.1769 13.3213 17.4258 13.4296L22.9219 15.7851C23.2473 15.9242 23.519 16.1649 23.6964 16.4711C23.8738 16.7774 23.9474 17.1328 23.9062 17.4843ZM22.5117 17.3085C22.5157 17.2596 22.5043 17.2107 22.4791 17.1687C22.4539 17.1266 22.4161 17.0936 22.3711 17.0741L16.875 14.7186C16.8387 14.7047 16.7996 14.6995 16.7609 14.7036C16.7221 14.7077 16.685 14.7208 16.6523 14.7421L13.7227 16.6991C13.4855 16.8549 13.2124 16.9475 12.9293 16.968C12.6462 16.9885 12.3627 16.9363 12.1055 16.8163C9.97386 15.7786 8.24986 14.0587 7.20703 11.9296C7.08525 11.6755 7.03098 11.3942 7.04945 11.113C7.06792 10.8318 7.15852 10.5601 7.3125 10.3241L9.25781 7.34755C9.28103 7.31582 9.29543 7.2785 9.29955 7.23939C9.30367 7.20028 9.29735 7.16078 9.28125 7.1249L6.92578 1.6288C6.90781 1.58761 6.87837 1.55244 6.84097 1.52751C6.80357 1.50258 6.75979 1.48892 6.71484 1.48818H6.69141C5.5045 1.6442 4.41447 2.22545 3.62357 3.1241C2.83268 4.02275 2.3946 5.17779 2.39062 6.3749C2.39373 10.4144 3.99977 14.2875 6.8561 17.1438C9.71243 20.0001 13.5855 21.6062 17.625 21.6093C18.8221 21.6053 19.9771 21.1672 20.8758 20.3763C21.7744 19.5854 22.3557 18.4954 22.5117 17.3085Z" fill="white"/>
</svg>
